<svg xmlns="http://www.w3.org/2000/svg" xmlns:xlink="http://www.w3.org/1999/xlink" width="250" height="73.54" viewBox="0 0 250 73.54"><defs><style>.a{fill:#595757;}.b{fill:#004da0;}.c{fill:url(#a);}.d{fill:url(#b);}</style><radialGradient id="a" cx="25.55" cy="36.77" r="31.66" gradientUnits="userSpaceOnUse"><stop offset="0" stop-color="#54c2f0"/><stop offset="1" stop-color="#009fe8"/></radialGradient><radialGradient id="b" cx="24.68" cy="33.82" r="25.85" gradientUnits="userSpaceOnUse"><stop offset="0" stop-color="#008bd5"/><stop offset="1" stop-color="#004da0"/></radialGradient></defs><title>centerpole_logo</title><path class="a" d="M79.21,65.84l1,.15a8,8,0,0,1-.1,1,3,3,0,0,1-.21.7,1.4,1.4,0,0,1-.84.81,2.83,2.83,0,0,1-.7.17,8,8,0,0,1-.93,0l-.94,0a3.83,3.83,0,0,1-.75-.12l-.59-.17a1.12,1.12,0,0,1-.45-.28q-.2-.2-.33-.35a1.3,1.3,0,0,1-.22-.48q-.09-.32-.14-.57A5.55,5.55,0,0,1,74,66c0-.31,0-.58,0-.81s0-.56,0-1,0-.78,0-1,0-.55,0-.86a6.94,6.94,0,0,1,.07-.72,4.31,4.31,0,0,1,.14-.56,1.39,1.39,0,0,1,.22-.45,3,3,0,0,1,.32-.32,1.11,1.11,0,0,1,.43-.24l.57-.14a4.49,4.49,0,0,1,.72-.09l.9,0q.53,0,.9,0a3.27,3.27,0,0,1,.7.15,1.59,1.59,0,0,1,.54.29,1.69,1.69,0,0,1,.37.46,2.52,2.52,0,0,1,.25.67,6.67,6.67,0,0,1,.13.93l-1,.2c0-.2,0-.36-.05-.49a3.63,3.63,0,0,0-.07-.39L79,61.26A.64.64,0,0,0,78.9,61l-.13-.17a.46.46,0,0,0-.18-.11l-.22-.07-.3,0-.36,0H76.6l-.52,0a1.63,1.63,0,0,0-.41.09,1.15,1.15,0,0,0-.28.16.56.56,0,0,0-.18.25,1.23,1.23,0,0,0-.07.36q-.05,1.54-.05,3.14,0,1.12.05,2.18a.9.9,0,0,0,.19.52,1.18,1.18,0,0,0,.62.3,5.91,5.91,0,0,0,1.31.11q.45,0,.76,0a1.53,1.53,0,0,0,.52-.12,2,2,0,0,0,.32-.17.56.56,0,0,0,.18-.31,2.63,2.63,0,0,0,.09-.38c0-.1,0-.28,0-.53V66C79.2,65.93,79.21,65.88,79.21,65.84Z"/><path class="a" d="M86.84,68.53H85.69V64.65c0-.14,0-.32,0-.53s0-.36,0-.43a1.78,1.78,0,0,0,0-.45.54.54,0,0,0-.2-.28.92.92,0,0,0-.44-.16,5.86,5.86,0,0,0-.78,0l-.44,0a2.14,2.14,0,0,0-.39.09.79.79,0,0,0-.3.17.39.39,0,0,0-.13.26q-.08,1-.08,1.88v3.33H81.75V59.88l1.15-.09v2.84A1.91,1.91,0,0,1,84.63,62a5.38,5.38,0,0,1,.62,0l.49.09a1.42,1.42,0,0,1,.38.15,1.86,1.86,0,0,1,.28.19.87.87,0,0,1,.2.25,1.59,1.59,0,0,1,.2.63c0,.14,0,.26,0,.38s0,.26,0,.43,0,.19,0,.36,0,.29,0,.38Z"/><path class="a" d="M93.3,68.53H92.4l-.19-.91a1.16,1.16,0,0,1-.63.8,3.45,3.45,0,0,1-1.34.2,3.35,3.35,0,0,1-1-.11,1.2,1.2,0,0,1-.59-.38,1.51,1.51,0,0,1-.3-.65,4.79,4.79,0,0,1-.08-1,1.18,1.18,0,0,1,.1-.49,1.1,1.1,0,0,1,.26-.37,1.46,1.46,0,0,1,.44-.26,3.61,3.61,0,0,1,.57-.17,6,6,0,0,1,.72-.1l.82,0h.94V63.28a.41.41,0,0,0-.28-.41,3,3,0,0,0-1-.11q-.5,0-.75,0a.66.66,0,0,0-.38.14.42.42,0,0,0-.15.22,3.21,3.21,0,0,0,0,.41c0,.07,0,.13,0,.17l-.89,0a2.32,2.32,0,0,1,0-.27,1.71,1.71,0,0,1,.11-.66,1.11,1.11,0,0,1,.29-.43,1.29,1.29,0,0,1,.49-.24,3.31,3.31,0,0,1,.62-.11L91,62a4.88,4.88,0,0,1,1.13.11,1.43,1.43,0,0,1,1.1,1.1,4.86,4.86,0,0,1,.11,1.13ZM92.16,66.7v-1a13.38,13.38,0,0,0-1.76.09,2,2,0,0,0-.82.24.51.51,0,0,0-.21.43v0a2.46,2.46,0,0,0,.15,1.1c.1.14.39.22.89.22a2.92,2.92,0,0,0,1-.15,1.1,1.1,0,0,0,.55-.39A1.19,1.19,0,0,0,92.16,66.7Z"/><path class="a" d="M96.27,68.53H95.12V59.88l1.15-.09Z"/><path class="a" d="M99.28,68.53H98.13V59.88l1.15-.09Z"/><path class="a" d="M106.11,65.24l-.87.08h-3.17q0,.84,0,1.85a.55.55,0,0,0,.33.52,3.68,3.68,0,0,0,1.19.13,5.21,5.21,0,0,0,.57,0,1.29,1.29,0,0,0,.39-.09,1.33,1.33,0,0,0,.23-.13.37.37,0,0,0,.13-.19,1.43,1.43,0,0,0,.05-.22c0-.06,0-.15,0-.27s0-.22,0-.3l.89.16a5.32,5.32,0,0,1-.06.69,1.69,1.69,0,0,1-.16.5,1.06,1.06,0,0,1-.26.34,1.19,1.19,0,0,1-.41.21,2.59,2.59,0,0,1-.56.11q-.31,0-.76,0a6.67,6.67,0,0,1-1-.07,4.87,4.87,0,0,1-.74-.17,1.12,1.12,0,0,1-.5-.32,2.48,2.48,0,0,1-.31-.43A1.74,1.74,0,0,1,101,67c0-.26-.06-.5-.07-.72s0-.51,0-.89q0-.8,0-1.25a5.58,5.58,0,0,1,.11-.9,1.62,1.62,0,0,1,.25-.65,1.52,1.52,0,0,1,.46-.38,1.92,1.92,0,0,1,.73-.22,9.42,9.42,0,0,1,1.06,0q.45,0,.77,0a2.93,2.93,0,0,1,.6.11,2,2,0,0,1,.45.19,1,1,0,0,1,.31.31,1.75,1.75,0,0,1,.21.42,3.14,3.14,0,0,1,.12.58c0,.24.05.48.06.73S106.11,64.88,106.11,65.24Zm-4-.53H105q0-.74-.06-1.36a.5.5,0,0,0-.3-.47,3,3,0,0,0-1-.12,3.5,3.5,0,0,0-1.05.09.38.38,0,0,0-.17.1.53.53,0,0,0-.12.21,2.26,2.26,0,0,0-.07.25,2.42,2.42,0,0,0,0,.32c0,.14,0,.24,0,.32s0,.19,0,.35S102.07,64.66,102.07,64.72Z"/><path class="a" d="M112.71,68.53h-1.15V64.66c0-.25,0-.45,0-.6s0-.3,0-.45a3.09,3.09,0,0,0,0-.34.81.81,0,0,0-.08-.23.41.41,0,0,0-.12-.15l-.19-.08a1,1,0,0,0-.24,0h-.33a4.92,4.92,0,0,0-.75,0,2.12,2.12,0,0,0-.51.14.71.71,0,0,0-.31.24,1,1,0,0,0-.15.34,2.14,2.14,0,0,0,0,.45c0,.1,0,.28,0,.53s0,.45,0,.61v3.4h-1.15V62.14h1l.11.72a1.08,1.08,0,0,1,.67-.69,3.3,3.3,0,0,1,1.23-.21,4,4,0,0,1,.6,0,1.74,1.74,0,0,1,.46.14,1.7,1.7,0,0,1,.35.22,1,1,0,0,1,.25.32,2.59,2.59,0,0,1,.17.41,3,3,0,0,1,.1.52c0,.21,0,.42,0,.63s0,.46,0,.74Z"/><path class="a" d="M119.5,62.14v5.58q0,.58,0,1a4,4,0,0,1-.14.74,1.5,1.5,0,0,1-.28.55,1.54,1.54,0,0,1-.46.36,2.11,2.11,0,0,1-.68.21,6.49,6.49,0,0,1-.94.06,5.6,5.6,0,0,1-1.82-.24l.08-.79a5.86,5.86,0,0,0,1.55.18,4.6,4.6,0,0,0,.72,0,2,2,0,0,0,.46-.12.56.56,0,0,0,.26-.2.69.69,0,0,0,.12-.26,1.62,1.62,0,0,0,0-.33v-1a1.06,1.06,0,0,1-.54.59,2.54,2.54,0,0,1-1.08.19,4.86,4.86,0,0,1-.87-.07,3.46,3.46,0,0,1-.63-.17,1,1,0,0,1-.43-.33,2.63,2.63,0,0,1-.27-.43,1.88,1.88,0,0,1-.15-.58q0-.38-.06-.67c0-.2,0-.47,0-.82s0-.78,0-1,0-.52.05-.81a2.32,2.32,0,0,1,.13-.65,2.92,2.92,0,0,1,.24-.45.83.83,0,0,1,.39-.33,3,3,0,0,1,.56-.16,4.09,4.09,0,0,1,.77-.06,3,3,0,0,1,1.22.21,1.3,1.3,0,0,1,.67.67l.11-.71Zm-1.15,5.09V63.68A.78.78,0,0,0,118,63a2.24,2.24,0,0,0-1.16-.21,2.92,2.92,0,0,0-1.12.15q-.33.16-.33,1.27,0,1.68,0,2.93a.62.62,0,0,0,.14.4.77.77,0,0,0,.43.18,6.38,6.38,0,0,0,.95,0Q118.3,67.75,118.36,67.23Z"/><path class="a" d="M126.28,65.24l-.87.08h-3.17q0,.84,0,1.85a.55.55,0,0,0,.33.52,3.69,3.69,0,0,0,1.19.13,5.25,5.25,0,0,0,.57,0,1.28,1.28,0,0,0,.39-.09,1.27,1.27,0,0,0,.23-.13.36.36,0,0,0,.13-.19,1.31,1.31,0,0,0,.05-.22c0-.06,0-.15,0-.27s0-.22,0-.3l.89.16a5.13,5.13,0,0,1-.06.69,1.69,1.69,0,0,1-.16.5,1.07,1.07,0,0,1-.26.34,1.21,1.21,0,0,1-.41.21,2.6,2.6,0,0,1-.57.11c-.21,0-.46,0-.76,0a6.66,6.66,0,0,1-1-.07,4.87,4.87,0,0,1-.74-.17,1.12,1.12,0,0,1-.5-.32,2.48,2.48,0,0,1-.31-.43,1.72,1.72,0,0,1-.17-.6q-.05-.4-.07-.72c0-.21,0-.51,0-.89q0-.8,0-1.25a5.81,5.81,0,0,1,.11-.9,1.65,1.65,0,0,1,.25-.65,1.53,1.53,0,0,1,.47-.38,1.92,1.92,0,0,1,.73-.22,9.43,9.43,0,0,1,1.06,0c.3,0,.56,0,.77,0a2.93,2.93,0,0,1,.6.11,2.05,2.05,0,0,1,.45.19,1,1,0,0,1,.31.31,1.74,1.74,0,0,1,.21.42,3.14,3.14,0,0,1,.12.58q0,.36.06.73T126.28,65.24Zm-4-.53h2.89q0-.74-.06-1.36a.5.5,0,0,0-.31-.47,3,3,0,0,0-1-.12,3.5,3.5,0,0,0-1.05.09.39.39,0,0,0-.17.1.53.53,0,0,0-.12.21,1.88,1.88,0,0,0-.11.57c0,.14,0,.24,0,.32s0,.19,0,.35S122.25,64.66,122.25,64.72Z"/><path class="a" d="M132.9,68.53h-1l-.11-.8q-.35.89-1.86.89a4.35,4.35,0,0,1-.72-.05,1.67,1.67,0,0,1-.55-.18,2.5,2.5,0,0,1-.39-.27,1,1,0,0,1-.27-.4,4.47,4.47,0,0,1-.17-.47,3.06,3.06,0,0,1-.09-.59q0-.38,0-.66t0-.76c0-.31,0-.59,0-.81s0-.46.06-.68a3.29,3.29,0,0,1,.12-.57,2.33,2.33,0,0,1,.19-.45,1.13,1.13,0,0,1,.29-.35,1.89,1.89,0,0,1,.41-.23,2.13,2.13,0,0,1,.55-.14,5.45,5.45,0,0,1,.7,0,2.74,2.74,0,0,1,1.17.2,1.18,1.18,0,0,1,.6.64V59.69l1.15-.09ZM131.75,67V63.65a.74.74,0,0,0-.31-.7,2.53,2.53,0,0,0-1.18-.19,3.73,3.73,0,0,0-1,.1.58.58,0,0,0-.36.48,5,5,0,0,0-.09,1.07q0,1,0,2.75a.56.56,0,0,0,.31.52,3.06,3.06,0,0,0,1.11.13,2.78,2.78,0,0,0,1.14-.16A.69.69,0,0,0,131.75,67Z"/><path class="a" d="M143.23,68.53H142l-.66-2.22h-3.21l-.63,2.22H136.4l2.66-8.67h1.58Zm-2.1-3.05-.73-2.6-.6-2.13q-.34,1.21-.59,2.07l-.78,2.66Z"/><path class="a" d="M146.92,67.72l0,.81a5.38,5.38,0,0,1-.88.08,2.22,2.22,0,0,1-.7-.09.79.79,0,0,1-.42-.3,1.26,1.26,0,0,1-.19-.45,3.15,3.15,0,0,1-.05-.63V62.8h-.87v-.65h.87V60.33l1.14-.09v1.91H147v.65h-1.18v4a3.31,3.31,0,0,0,.06.81c0,.12.15.19.33.19Z"/><path class="a" d="M153.51,68.53h-1.15V64.65c0-.14,0-.32,0-.53s0-.36,0-.43a1.78,1.78,0,0,0,0-.45.54.54,0,0,0-.2-.28.92.92,0,0,0-.44-.16,5.86,5.86,0,0,0-.78,0l-.44,0a2.14,2.14,0,0,0-.39.09.79.79,0,0,0-.3.17.39.39,0,0,0-.13.26q-.08,1-.08,1.88v3.33h-1.15V59.88l1.15-.09v2.84a1.91,1.91,0,0,1,1.73-.66,5.38,5.38,0,0,1,.62,0l.49.09a1.42,1.42,0,0,1,.38.15,1.86,1.86,0,0,1,.28.19.87.87,0,0,1,.2.25,1.59,1.59,0,0,1,.2.63c0,.14,0,.26,0,.38s0,.26,0,.43,0,.19,0,.36,0,.29,0,.38Z"/><path class="a" d="M156.48,68.53h-1.15V59.88l1.15-.09Z"/><path class="a" d="M163.31,65.24l-.87.08h-3.17q0,.84,0,1.85a.55.55,0,0,0,.33.52,3.68,3.68,0,0,0,1.19.13,5.21,5.21,0,0,0,.57,0,1.29,1.29,0,0,0,.39-.09,1.33,1.33,0,0,0,.23-.13.37.37,0,0,0,.13-.19,1.42,1.42,0,0,0,.05-.22c0-.06,0-.15,0-.27s0-.22,0-.3l.89.16a5.3,5.3,0,0,1-.06.69,1.69,1.69,0,0,1-.16.5,1.06,1.06,0,0,1-.26.34,1.19,1.19,0,0,1-.41.21,2.59,2.59,0,0,1-.56.11q-.31,0-.76,0a6.67,6.67,0,0,1-1-.07,4.87,4.87,0,0,1-.74-.17,1.12,1.12,0,0,1-.5-.32,2.48,2.48,0,0,1-.31-.43,1.74,1.74,0,0,1-.17-.6c0-.26-.06-.5-.07-.72s0-.51,0-.89q0-.8,0-1.25a5.58,5.58,0,0,1,.11-.9,1.62,1.62,0,0,1,.25-.65,1.52,1.52,0,0,1,.46-.38,1.92,1.92,0,0,1,.73-.22,9.42,9.42,0,0,1,1.06,0q.45,0,.77,0a2.92,2.92,0,0,1,.6.11,2,2,0,0,1,.45.19,1,1,0,0,1,.31.31,1.74,1.74,0,0,1,.21.42,3.14,3.14,0,0,1,.12.58c0,.24.05.48.06.73S163.31,64.88,163.31,65.24Zm-4-.53h2.89q0-.74-.06-1.36a.5.5,0,0,0-.3-.47,3,3,0,0,0-1-.12,3.5,3.5,0,0,0-1.05.09.38.38,0,0,0-.17.1.53.53,0,0,0-.12.21,2.29,2.29,0,0,0-.07.25,2.42,2.42,0,0,0,0,.32c0,.14,0,.24,0,.32s0,.19,0,.35S159.27,64.66,159.27,64.72Z"/><path class="a" d="M167.38,67.72l0,.81a5.39,5.39,0,0,1-.88.08,2.21,2.21,0,0,1-.7-.09.79.79,0,0,1-.42-.3,1.26,1.26,0,0,1-.19-.45,3.15,3.15,0,0,1-.05-.63V62.8h-.87v-.65h.87V60.33l1.14-.09v1.91h1.18v.65h-1.18v4a3.32,3.32,0,0,0,.06.81c0,.12.15.19.33.19Z"/><path class="a" d="M173.88,65.24l-.87.08h-3.17q0,.84,0,1.85a.55.55,0,0,0,.33.52,3.68,3.68,0,0,0,1.19.13,5.21,5.21,0,0,0,.57,0,1.29,1.29,0,0,0,.39-.09,1.34,1.34,0,0,0,.23-.13.37.37,0,0,0,.13-.19,1.42,1.42,0,0,0,.05-.22c0-.06,0-.15,0-.27s0-.22,0-.3l.89.16a5.3,5.3,0,0,1-.06.69,1.69,1.69,0,0,1-.16.5,1.06,1.06,0,0,1-.26.34,1.19,1.19,0,0,1-.41.21,2.59,2.59,0,0,1-.56.11q-.31,0-.76,0a6.67,6.67,0,0,1-1-.07,4.87,4.87,0,0,1-.74-.17,1.12,1.12,0,0,1-.5-.32,2.49,2.49,0,0,1-.31-.43,1.74,1.74,0,0,1-.17-.6c0-.26-.06-.5-.07-.72s0-.51,0-.89q0-.8,0-1.25a5.57,5.57,0,0,1,.11-.9,1.62,1.62,0,0,1,.25-.65,1.51,1.51,0,0,1,.46-.38,1.92,1.92,0,0,1,.73-.22,9.42,9.42,0,0,1,1.06,0q.45,0,.77,0a2.92,2.92,0,0,1,.6.11,2,2,0,0,1,.45.19,1,1,0,0,1,.31.31,1.74,1.74,0,0,1,.21.42,3.14,3.14,0,0,1,.12.58c0,.24.05.48.06.73S173.88,64.88,173.88,65.24Zm-4-.53h2.89q0-.74-.06-1.36a.5.5,0,0,0-.3-.47,3,3,0,0,0-1-.12,3.5,3.5,0,0,0-1.05.09.38.38,0,0,0-.17.1.53.53,0,0,0-.12.21,2.28,2.28,0,0,0-.07.25,2.42,2.42,0,0,0,0,.32c0,.14,0,.24,0,.32s0,.19,0,.35S169.85,64.66,169.85,64.72Z"/><path class="a" d="M180.05,66.76a2.89,2.89,0,0,1-.12.92,1.15,1.15,0,0,1-.4.57,1.69,1.69,0,0,1-.69.29,5.29,5.29,0,0,1-1,.08h-.58l-.5,0a2.43,2.43,0,0,1-.45-.07l-.36-.13a.81.81,0,0,1-.31-.22,1.82,1.82,0,0,1-.21-.31,1.32,1.32,0,0,1-.14-.43,3.51,3.51,0,0,1,0-.56l.9-.23a3.74,3.74,0,0,0,.12.84.55.55,0,0,0,.44.3,6.53,6.53,0,0,0,1.05.05,4.34,4.34,0,0,0,.72,0,.46.46,0,0,0,.32-.17q.23-.19.23-1.31a.57.57,0,0,0-.07-.29.51.51,0,0,0-.17-.18,1,1,0,0,0-.28-.1l-.32-.06-.38,0-.37,0-.69-.09a3.69,3.69,0,0,1-.54-.13,1.26,1.26,0,0,1-.43-.21,1.37,1.37,0,0,1-.46-.82,3.85,3.85,0,0,1-.05-.68,2.51,2.51,0,0,1,.09-.71,1.28,1.28,0,0,1,.26-.48,1.11,1.11,0,0,1,.46-.3,3,3,0,0,1,.66-.15,7.82,7.82,0,0,1,.9,0h.54l.46,0a1.92,1.92,0,0,1,.41.09,1.58,1.58,0,0,1,.32.16.73.73,0,0,1,.25.26,1.47,1.47,0,0,1,.14.38,2.1,2.1,0,0,1,.06.51l-.78.24c0-.15,0-.27,0-.36a.63.63,0,0,0-.09-.24.48.48,0,0,0-.15-.16.81.81,0,0,0-.26-.08,2.3,2.3,0,0,0-.37,0h-.54a2.32,2.32,0,0,0-1,.15.51.51,0,0,0-.27.49V64q0,.38.23.49a6.12,6.12,0,0,0,1.23.23l.16,0,.64.09.5.11a1.36,1.36,0,0,1,.4.16,1.66,1.66,0,0,1,.27.23.82.82,0,0,1,.2.34,3.17,3.17,0,0,1,.1.47A4.51,4.51,0,0,1,180.05,66.76Z"/><path class="a" d="M190,68.53h-1.2l-.66-2.22H185l-.63,2.22h-1.13l2.66-8.67h1.58Zm-2.1-3.05-.73-2.6-.6-2.13q-.34,1.21-.59,2.07l-.78,2.66Z"/><path class="a" d="M196,64l-.94.16-.12-.81a.84.84,0,0,0-.11-.35c-.1-.12-.38-.18-.84-.2h-.36a3.8,3.8,0,0,0-1,.09q-.27,0-.39.53a4.89,4.89,0,0,0-.12,1.18v2.26a2.16,2.16,0,0,0,.05.44.66.66,0,0,0,.12.31,1,1,0,0,0,.25.14,1.05,1.05,0,0,0,.4.09h.61l.54,0,.39-.05a.62.62,0,0,0,.26-.11l.16-.14a.46.46,0,0,0,.08-.2,2.17,2.17,0,0,0,0-.24c0-.07,0-.16,0-.3s0-.25,0-.34l1,.16c0,.3,0,.55-.08.73a2.48,2.48,0,0,1-.15.53,1,1,0,0,1-.26.39,1.48,1.48,0,0,1-.43.24,2.3,2.3,0,0,1-.63.14c-.24,0-.54,0-.89,0l-.69,0a2.75,2.75,0,0,1-.56-.1l-.44-.14a.76.76,0,0,1-.33-.24l-.24-.29a1,1,0,0,1-.16-.4c0-.18-.08-.34-.1-.47a4.5,4.5,0,0,1-.05-.58q0-.39,0-.67c0-.18,0-.45,0-.79s0-.58,0-.81a5.34,5.34,0,0,1,.07-.65,2.4,2.4,0,0,1,.14-.52,1.63,1.63,0,0,1,.23-.39,1.13,1.13,0,0,1,.33-.29,2,2,0,0,1,.45-.18,3.34,3.34,0,0,1,.59-.1c.22,0,.47,0,.75,0a6.54,6.54,0,0,1,.93.06,2.59,2.59,0,0,1,.67.18,1.09,1.09,0,0,1,.46.36,1.78,1.78,0,0,1,.26.58A4,4,0,0,1,196,64Z"/><path class="a" d="M202.24,68.53h-.91l-.19-.91a1.16,1.16,0,0,1-.63.8,3.45,3.45,0,0,1-1.34.2,3.35,3.35,0,0,1-1-.11,1.2,1.2,0,0,1-.59-.38,1.51,1.51,0,0,1-.3-.65,4.79,4.79,0,0,1-.08-1,1.2,1.2,0,0,1,.1-.49,1.11,1.11,0,0,1,.26-.37,1.46,1.46,0,0,1,.44-.26,3.61,3.61,0,0,1,.57-.17,5.92,5.92,0,0,1,.72-.1l.82,0h.94V63.28a.41.41,0,0,0-.28-.41,3,3,0,0,0-1-.11q-.5,0-.75,0a.67.67,0,0,0-.38.14.41.41,0,0,0-.15.22,3,3,0,0,0,0,.41c0,.07,0,.13,0,.17l-.89,0a2.32,2.32,0,0,1,0-.27,1.71,1.71,0,0,1,.11-.66,1.11,1.11,0,0,1,.29-.43,1.29,1.29,0,0,1,.49-.24,3.31,3.31,0,0,1,.62-.11l.77,0a4.89,4.89,0,0,1,1.13.11,1.42,1.42,0,0,1,1.1,1.1,4.85,4.85,0,0,1,.11,1.13ZM201.1,66.7v-1a13.38,13.38,0,0,0-1.76.09,2,2,0,0,0-.82.24.51.51,0,0,0-.21.43v0a2.48,2.48,0,0,0,.15,1.1c.1.14.39.22.89.22a2.92,2.92,0,0,0,1-.15,1.1,1.1,0,0,0,.55-.39A1.2,1.2,0,0,0,201.1,66.7Z"/><path class="a" d="M209.08,68.53h-1l-.11-.8q-.36.89-1.86.89a4.34,4.34,0,0,1-.72-.05,1.67,1.67,0,0,1-.55-.18,2.56,2.56,0,0,1-.39-.27,1,1,0,0,1-.27-.4,4.47,4.47,0,0,1-.17-.47,3.11,3.11,0,0,1-.09-.59c0-.25,0-.47,0-.66s0-.44,0-.76,0-.59,0-.81,0-.46.06-.68a3.29,3.29,0,0,1,.12-.57,2.31,2.31,0,0,1,.19-.45,1.13,1.13,0,0,1,.29-.35,1.88,1.88,0,0,1,.41-.23,2.12,2.12,0,0,1,.55-.14,5.46,5.46,0,0,1,.7,0,2.74,2.74,0,0,1,1.17.2,1.18,1.18,0,0,1,.6.64V59.69l1.15-.09ZM207.93,67V63.65a.74.74,0,0,0-.31-.7,2.52,2.52,0,0,0-1.18-.19,3.74,3.74,0,0,0-1,.1.58.58,0,0,0-.36.48,5,5,0,0,0-.09,1.07q0,1,0,2.75a.56.56,0,0,0,.31.52,3.06,3.06,0,0,0,1.11.13,2.78,2.78,0,0,0,1.14-.16A.69.69,0,0,0,207.93,67Z"/><path class="a" d="M215.88,65.24l-.87.08h-3.17q0,.84,0,1.85a.55.55,0,0,0,.33.52,3.68,3.68,0,0,0,1.19.13,5.21,5.21,0,0,0,.57,0,1.29,1.29,0,0,0,.39-.09,1.34,1.34,0,0,0,.23-.13.36.36,0,0,0,.13-.19,1.43,1.43,0,0,0,.05-.22c0-.06,0-.15,0-.27s0-.22,0-.3l.89.16a5.3,5.3,0,0,1-.06.69,1.69,1.69,0,0,1-.16.5,1.06,1.06,0,0,1-.26.34,1.19,1.19,0,0,1-.41.21,2.59,2.59,0,0,1-.56.11q-.31,0-.76,0a6.68,6.68,0,0,1-1-.07,4.87,4.87,0,0,1-.74-.17,1.12,1.12,0,0,1-.5-.32,2.54,2.54,0,0,1-.31-.43,1.76,1.76,0,0,1-.17-.6q-.05-.4-.07-.72t0-.89q0-.8,0-1.25a5.81,5.81,0,0,1,.11-.9,1.65,1.65,0,0,1,.25-.65,1.52,1.52,0,0,1,.47-.38,1.92,1.92,0,0,1,.73-.22,9.42,9.42,0,0,1,1.06,0c.3,0,.56,0,.77,0a2.91,2.91,0,0,1,.6.11,2,2,0,0,1,.45.19,1,1,0,0,1,.31.31,1.78,1.78,0,0,1,.21.42,3.3,3.3,0,0,1,.12.58q0,.36.06.73T215.88,65.24Zm-4-.53h2.89q0-.74-.06-1.36a.5.5,0,0,0-.3-.47,3,3,0,0,0-1-.12,3.5,3.5,0,0,0-1.05.09.39.39,0,0,0-.17.1.53.53,0,0,0-.12.21,2.25,2.25,0,0,0-.07.25,2.12,2.12,0,0,0,0,.32c0,.14,0,.24,0,.32s0,.19,0,.35S211.85,64.66,211.85,64.72Z"/><path class="a" d="M225.9,68.53h-1.15V64.65q0-.66,0-1a1.65,1.65,0,0,0,0-.34.78.78,0,0,0-.13-.27.59.59,0,0,0-.33-.21,2.11,2.11,0,0,0-.58-.07,3.66,3.66,0,0,0-.65,0,1.55,1.55,0,0,0-.43.13.6.6,0,0,0-.25.24,1,1,0,0,0-.11.33,3.16,3.16,0,0,0,0,.45q0,.13,0,.46c0,.22,0,.4,0,.53v3.57h-1.15V64.36c0-.26,0-.45,0-.57a3.06,3.06,0,0,0,0-.4.65.65,0,0,0-.11-.31,1.08,1.08,0,0,0-.22-.17.89.89,0,0,0-.37-.12l-.55,0-.4,0a2.06,2.06,0,0,0-.36.08.71.71,0,0,0-.29.17.38.38,0,0,0-.12.26q-.07.77-.08,1.7v3.52h-1.15V62.14h1l.11.7a1.37,1.37,0,0,1,.67-.67,2.7,2.7,0,0,1,1.11-.2,2.22,2.22,0,0,1,1,.21,1.24,1.24,0,0,1,.57.69,1.87,1.87,0,0,1,1.84-.91,5.09,5.09,0,0,1,.77,0,1.64,1.64,0,0,1,.56.18,1.23,1.23,0,0,1,.38.32,1.47,1.47,0,0,1,.23.5,3.64,3.64,0,0,1,.12.68c0,.25,0,.55,0,.91Z"/><path class="a" d="M232.6,62.14l-2,6.08c-.05.15-.1.32-.16.53l-.14.5c0,.13-.08.27-.14.42A1.53,1.53,0,0,1,230,70a1.5,1.5,0,0,1-.24.26.88.88,0,0,1-.35.18,1.77,1.77,0,0,1-.47.06,5.45,5.45,0,0,1-1.26-.13l.17-.88.3,0,.32,0,.25,0a.66.66,0,0,0,.57-.26,1.7,1.7,0,0,0,.2-.95l-2.39-6.29h1.16l1.18,3.24q.32.89.59,1.67.19-.7.56-1.94l.88-3Z"/><path class="b" d="M64.81,28.32c-.92,0-1.62.48-1.84,2.15a54,54,0,0,0-.39,7.67A54,54,0,0,0,63,45.8c.22,1.66.92,2.15,1.84,2.15h6.4v6h-6.4c-3.77,0-7.71-1.45-8.41-8a68.93,68.93,0,0,1,0-15.5c.7-6.57,4.64-8,8.41-8h6.4v6Z"/><path class="b" d="M106.06,22.36c2.89,0,5.12,1.18,5.52,5.56a76.9,76.9,0,0,1,.35,8v18h-6.57V36.38a64.42,64.42,0,0,0-.31-6.61c-.09-1-.57-1.45-1.4-1.45h-2.23V53.9H94.94V22.36Z"/><path class="b" d="M128.66,53.9h-6.57V28.32h-6v-6h18.66v6h-6Z"/><path class="b" d="M165.6,22.36c4.07,0,6,2.32,6.22,5.17.09,1,.13,1.66.13,2.32A8.53,8.53,0,0,1,169,37.08l-2.41,2.41a1.87,1.87,0,0,0-.39,1.36c0,.7.44,1.58,1.4,3.24l5.78,9.81h-7.23l-4.25-7.45c-2.15-3.72-2.41-4.38-2.41-5.69a4.77,4.77,0,0,1,1.75-3.85l1.66-1.66c2.15-2.15,2.45-2.93,2.45-4.2a6.93,6.93,0,0,0-.18-1.58c-.18-.79-.83-1.14-1.8-1.14h-5.47v-6Z"/><path class="b" d="M182.6,22.36c5.39,0,7.84,1.36,8.23,5.52a34.42,34.42,0,0,1,.13,3.5c0,3-.74,4.86-3.59,7.71-3.07,3.07-3.77,4.07-3.77,6.31v8.5H177V45.23c0-3.24.74-4.6,2.37-6.22,4.64-4.64,5-5.61,5-7.45a8,8,0,0,0-.09-1.49c-.17-1.18-.79-1.75-2.72-1.75h-5v-6Z"/><path class="b" d="M212.07,38.13a75.48,75.48,0,0,1-.44,8.45c-.7,6.57-4.64,8-8.41,8s-7.71-1.45-8.41-8a75.3,75.3,0,0,1-.44-8.45,75.3,75.3,0,0,1,.44-8.45c.7-6.57,4.64-8,8.41-8s7.71,1.45,8.41,8A75.48,75.48,0,0,1,212.07,38.13Zm-6.61,0a65.13,65.13,0,0,0-.39-8.37c-.22-1.66-.92-2.15-1.84-2.15s-1.62.48-1.84,2.15a65.14,65.14,0,0,0-.39,8.37,65.13,65.13,0,0,0,.39,8.37c.22,1.66.92,2.15,1.84,2.15s1.62-.48,1.84-2.15A65.13,65.13,0,0,0,205.46,38.13Z"/><path class="b" d="M232,47.94v6h-14.8V22.8h6.57V47.94Z"/><path class="b" d="M83.64,28.32c-.92,0-1.62.48-1.84,2.15a54,54,0,0,0-.39,7.67,54,54,0,0,0,.39,7.67c.22,1.66.92,2.15,1.84,2.15H90v6h-6.4c-3.77,0-7.71-1.45-8.41-8a68.93,68.93,0,0,1,0-15.5c.7-6.57,4.64-8,8.41-8H90v6Z"/><circle class="b" cx="86.52" cy="38.13" r="3.51"/><path class="b" d="M147.06,28.32c-.92,0-1.62.48-1.84,2.15a54,54,0,0,0-.39,7.67,54,54,0,0,0,.39,7.67c.22,1.66.92,2.15,1.84,2.15h6.4v6h-6.4c-3.77,0-7.71-1.45-8.41-8a68.93,68.93,0,0,1,0-15.5c.7-6.57,4.64-8,8.41-8h6.4v6Z"/><circle class="b" cx="149.94" cy="38.13" r="3.51"/><path class="b" d="M243.6,28.32c-.92,0-1.62.48-1.84,2.15a54,54,0,0,0-.39,7.67,54,54,0,0,0,.39,7.67c.22,1.66.92,2.15,1.84,2.15H250v6h-6.4c-3.77,0-7.71-1.45-8.41-8a68.92,68.92,0,0,1,0-15.5c.7-6.57,4.64-8,8.41-8H250v6Z"/><circle class="b" cx="246.49" cy="38.13" r="3.51"/><path class="c" d="M15,37.73c-9.15.15-16.6-7.8-14.67-15.9C4.87,2.69,32,12.66,45.05,7.89c-8,8.2-20.34,4.17-31.3,11.09C5.89,23.93,7.91,33.69,15,37.73Zm7.79,20.21C21.87,50,23.09,45,34.55,35.63S53.1,12.26,50.58,0c0,0,1.07,12.91-11.66,24.55-6.46,5.91-14.63,9.65-20.21,15.68-8.34,9-3.51,22.55-13.35,31a34.83,34.83,0,0,0,24.89,0S23.66,65.85,22.76,57.94Z"/><path class="d" d="M25.47,27.43a6.35,6.35,0,1,1-6.35-6.35A6.35,6.35,0,0,1,25.47,27.43Zm6.25,18.19c12-11.33,12.61-17.07,12.61-17.07C40,34.39,31.12,40.49,27.09,46.31s-1.76,13.41-1.76,13.41.39,1.15.84,2.13A17.81,17.81,0,0,1,31.72,45.62Zm-6.88-28c-.21.07-.57.23-.53.5s.48.55,1.08.9h0a6.12,6.12,0,0,1,2.83,3,9.48,9.48,0,0,1,.86,4.46h0c0,.57-.1.87.21,1.11s.46,0,.65-.09c2.47-1.75,4.6-3.45,5.81-4.28C40.38,20.06,47,13.35,48.15,5.8,45.27,14.94,32.73,15.34,24.84,17.63ZM13.06,40.2c-4.26-.29-9.51-3-11.85-7.21A15,15,0,0,0,9.06,44.23c2.75,1.36,3.51-.19,3.6-.41A13.85,13.85,0,0,1,14,41.23C14.58,40.31,13.06,40.2,13.06,40.2Z"/></svg>